<svg xmlns="http://www.w3.org/2000/svg" viewBox="0 0 1440 320">
  <path fill="#0099ff" fill-opacity="1" d="M0,64L30,101.3C60,139,120,213,180,224C240,235,300,181,360,165.3C420,149,480,171,540,160C600,149,660,107,720,101.3C780,96,840,128,900,122.7C960,117,1020,75,1080,90.7C1140,107,1200,181,1260,208C1320,235,1380,213,1410,202.7L1440,192L1440,0L1410,0C1380,0,1320,0,1260,0C1200,0,1140,0,1080,0C1020,0,960,0,900,0C840,0,780,0,720,0C660,0,600,0,540,0C480,0,420,0,360,0C300,0,240,0,180,0C120,0,60,0,30,0L0,0Z"></path>
</svg>